# xmcd CD database generated by RipIT
#
# Track frame offsets:
# 150
# 12583
# 23771
# 33947
# 47016
# 61013
# 76238
# 91519
# 104553
# 124184
# 137420
# 148192
# 160182
# 172840
# 183372
# 194142
# 215805
# 231746
# 242928
# 254390
# 267252
#
# Disc length: 3736 seconds
#
# Revision: 0
# Processed by: cddbd v1.5.2PL0 Copyright (c) Steve Scherf et al.
# Submitted via: RipIT 3.9.0 www.suwald.com/ripit/ripit.html on 2016-12-12 at 12:41
#
DISCID=2a0e9615
DTITLE=Various Artist - Nürnberg Soulweekender 2016
DYEAR=2016
DGENRE=soundtrack
TTITLE0=Steve Mancha - You'Re Still In My Heart
TTITLE1=Cooperettes - Shing-A-Ling
TTITLE2=Deon Jackson - When Your Love Has Gone
TTITLE3=Falcons - Love Look In Her Eyes
TTITLE4=Out Of Sights - My Woman'S Love
TTITLE5=The Invitations - Look On The Good Side
TTITLE6=Larry Saunders - On The Real Side
TTITLE7=Rare Pleasure - Let Me Down Easy
TTITLE8=Beverly and Duane - Love
TTITLE9=Joe Bataan - Young Gifted And Brown
TTITLE10=Bobby Taylor - There Are Roses Somewhere In This World
TTITLE11=Africano - Satisfactorize Your Mind
TTITLE12=Florence Ballard - Going Out Of My Head
TTITLE13=Five Stairsteps and Cubie - You Make Me So Mad
TTITLE14=John Stanberry - I Can'T Believe
TTITLE15=Solaris - You And Me
TTITLE16=Truth - Touch Me
TTITLE17=The Charmels - Something Sweet About My Baby
TTITLE18=Bobby King and The Relation - Don'T Give Up Hope
TTITLE19=Stevie Wonder - Hey Love
TTITLE20=Sunday - Where Did He Come From
EXTD=
EXTT0=
EXTT1=
EXTT2=
EXTT3=
EXTT4=
EXTT5=
EXTT6=
EXTT7=
EXTT8=
EXTT9=
EXTT10=
EXTT11=
EXTT12=
EXTT13=
EXTT14=
EXTT15=
EXTT16=
EXTT17=
EXTT18=
EXTT19=
EXTT20=
PLAYORDER=
